<?xml version="1.0" standalone="no"?>
<!DOCTYPE svg PUBLIC "-//W3C//DTD SVG 20010904//EN"
 "http://www.w3.org/TR/2001/REC-SVG-20010904/DTD/svg10.dtd">
<svg version="1.0" xmlns="http://www.w3.org/2000/svg"
 width="700.000000pt" height="700.000000pt" viewBox="0 0 700.000000 700.000000"
 preserveAspectRatio="xMidYMid meet">
<metadata>
Created by potrace 1.14, written by Peter Selinger 2001-2017
</metadata>
<g transform="translate(0.000000,700.000000) scale(0.100000,-0.100000)"
fill="#000000" stroke="none">
<path d="M3377 6444 c-1 -1 -46 -4 -101 -8 -336 -22 -689 -117 -1016 -273
-298 -142 -536 -310 -775 -548 -83 -82 -162 -163 -176 -180 -116 -138 -241
-319 -326 -470 -50 -90 -133 -259 -133 -271 0 -3 -7 -20 -15 -37 -92 -201
-177 -540 -202 -812 -10 -103 -10 -458 -1 -555 28 -281 88 -528 188 -782 291
-735 888 -1333 1620 -1621 328 -129 668 -196 1019 -201 230 -4 349 8 636 60
291 52 686 217 976 406 331 216 613 497 836 833 233 351 403 804 448 1195 3
25 8 61 11 80 10 60 12 491 3 570 -4 41 -11 98 -14 125 -22 179 -94 458 -170
650 -151 386 -358 702 -654 996 -549 546 -1235 834 -2014 844 -75 0 -138 0
-140 -1z m428 -219 c347 -48 618 -130 895 -269 1195 -600 1763 -1988 1331
-3256 -256 -755 -847 -1364 -1596 -1643 -176 -66 -410 -124 -570 -142 -33 -4
-69 -9 -80 -12 -11 -3 -123 -7 -250 -8 -228 -4 -375 8 -555 45 -30 6 -66 14
-80 16 -36 7 -121 31 -226 64 -476 150 -931 462 -1253 861 -148 183 -298 430
-382 629 -88 210 -168 495 -185 660 -3 25 -7 51 -9 58 -7 21 -19 227 -19 332
0 345 61 673 182 980 201 509 551 945 1004 1249 367 245 767 389 1228 440 78
9 495 6 565 -4z"/>
<path d="M3668 5477 l-117 -122 51 -30 c108 -64 360 -236 438 -298 160 -127
230 -188 313 -271 l99 -99 32 34 c74 80 206 237 206 246 0 20 -186 190 -331
300 -146 112 -495 335 -559 357 -10 3 -56 -37 -132 -117z"/>
<path d="M2769 5506 c-133 -66 -517 -173 -844 -236 -140 -27 -145 -28 -285
-51 -69 -11 -134 -23 -146 -25 -20 -5 -19 -10 32 -137 30 -73 54 -137 54 -144
0 -23 20 -24 132 -8 128 17 390 61 449 74 l39 9 0 -304 0 -304 -27 0 c-16 -1
-174 -1 -353 -1 l-325 0 0 -174 c0 -96 4 -177 7 -180 3 -4 144 -7 312 -7 l305
0 -40 -116 c-149 -431 -392 -903 -602 -1170 l-49 -62 55 -95 c31 -53 73 -131
94 -175 21 -44 41 -80 44 -80 3 0 31 35 62 78 166 232 320 526 469 897 l48
120 1 -890 c0 -490 0 -907 -1 -927 l-2 -38 179 3 178 2 2 940 c1 517 2 944 3
950 0 18 158 -209 276 -397 l30 -47 117 140 c74 87 115 144 111 152 -6 10
-102 123 -139 163 -5 6 -48 53 -95 105 -47 51 -115 125 -152 164 -156 166
-148 153 -148 222 l0 63 223 -1 c122 0 241 0 265 0 l42 1 0 179 0 180 -261 0
c-144 0 -263 2 -265 4 -9 8 -6 669 3 677 4 4 35 14 68 23 172 47 465 153 465
169 0 11 -266 278 -277 277 -4 0 -29 -10 -54 -23z"/>
<path d="M5001 5343 c-117 -455 -188 -680 -316 -1003 -79 -200 -97 -239 -202
-450 -135 -272 -235 -443 -364 -629 l-59 -84 0 766 0 767 -180 0 -180 0 0
-989 0 -989 -88 -88 c-81 -82 -150 -147 -245 -231 -123 -110 -420 -325 -595
-430 l-32 -19 44 -32 c24 -18 92 -78 150 -133 l107 -102 72 48 c161 107 400
294 521 407 34 31 62 56 63 54 1 -1 3 -51 4 -111 4 -265 52 -391 172 -449 101
-49 165 -55 622 -53 416 2 421 2 479 26 144 58 223 213 260 513 13 102 25 246
26 301 0 50 -2 57 -19 57 -34 0 -163 51 -234 92 -38 22 -70 38 -72 36 -1 -1
-5 -86 -8 -188 -11 -343 -37 -454 -113 -486 -47 -20 -666 -16 -702 4 -47 27
-52 60 -52 358 l0 276 43 52 c23 28 50 60 60 71 10 11 63 79 116 150 202 269
341 495 516 838 l122 239 16 -41 c9 -22 25 -59 36 -83 110 -241 264 -726 296
-933 4 -22 11 -63 16 -91 l10 -51 117 34 c157 45 226 65 230 68 4 3 -28 177
-49 260 -71 289 -192 622 -325 892 l-74 151 -104 -28 -104 -28 33 79 c18 43
31 79 29 79 -3 0 2 10 10 22 9 12 16 29 16 36 0 8 6 28 14 45 37 82 121 335
191 572 37 126 105 378 105 389 0 3 -69 18 -215 46 -60 11 -120 22 -132 25
-19 4 -24 -1 -32 -32z"/>
<path d="M3260 4077 c0 -7 -5 -51 -10 -97 -6 -47 -13 -107 -16 -135 -16 -144
-74 -449 -111 -585 -37 -135 -88 -274 -144 -389 -33 -67 -59 -124 -57 -126 2
-1 63 -35 136 -75 127 -69 134 -71 147 -54 18 24 100 191 110 224 4 14 11 30
15 35 11 15 75 224 104 340 38 153 74 358 111 630 2 17 7 59 11 95 3 36 8 68
10 71 3 6 -271 79 -296 79 -5 0 -10 -6 -10 -13z"/>
</g>
</svg>
