<?xml version="1.0" encoding="UTF-8" standalone="no" ?>
<!DOCTYPE svg PUBLIC "-//W3C//DTD SVG 1.1//EN" "http://www.w3.org/Graphics/SVG/1.1/DTD/svg11.dtd">
<svg xmlns="http://www.w3.org/2000/svg" xmlns:xlink="http://www.w3.org/1999/xlink" version="1.1" width="630" height="630" viewBox="0 0 630 630" xml:space="preserve">
    <desc>Created with Fabric.js 4.6.0</desc>
    <defs></defs>
    <g transform="matrix(1 0 0 1 315 315)" id="UxUjI8182FkI1n3wdT8D3">
        <path
            style="stroke: rgb(16, 137, 82); stroke-width: 0; stroke-dasharray: none; stroke-linecap: butt; stroke-dashoffset: 0; stroke-linejoin: miter; stroke-miterlimit: 4; fill: rgb(255, 97, 102); fill-rule: nonzero; opacity: 1;"
            vector-effect="non-scaling-stroke"
            transform=" translate(-315, -315)"
            d="M 0 0 L 630 0 L 630 630 L 0 630 z"
            stroke-linecap="round"
        />
    </g>
    <g transform="matrix(1 0 0 1 315 315)" id="0dh2C97iZSL66JIHxRWRy">
        <path
            style="stroke: rgb(238, 146, 167); stroke-width: 0; stroke-dasharray: none; stroke-linecap: butt; stroke-dashoffset: 0; stroke-linejoin: miter; stroke-miterlimit: 4; fill: rgb(248, 248, 255); fill-rule: nonzero; opacity: 1;"
            vector-effect="non-scaling-stroke"
            transform=" translate(-300, -300)"
            d="M 300 0 C 465.6 0 600 134.4 600 300 C 600 465.6 465.6 600 300 600 C 134.4 600 0 465.6 0 300 C 0 134.4 134.4 0 300 0 z"
            stroke-linecap="round"
        />
    </g>
    <g transform="matrix(1 0 0 1 315 315)" id="PKVcRrjAkubsebpAE_FDN">
        <path
            style="stroke: rgb(114, 252, 33); stroke-width: 0; stroke-dasharray: none; stroke-linecap: butt; stroke-dashoffset: 0; stroke-linejoin: miter; stroke-miterlimit: 4; fill: rgb(255, 97, 102); fill-rule: nonzero; opacity: 1;"
            vector-effect="non-scaling-stroke"
            transform=" translate(-280, -280)"
            d="M 280 0 C 434.56 0 560 125.44 560 280 C 560 434.56 434.56 560 280 560 C 125.44 560 0 434.56 0 280 C 0 125.44 125.44 0 280 0 z"
            stroke-linecap="round"
        />
    </g>
    <g transform="matrix(1 -0.03 0.03 1 325.62 343)" style="" id="yMnz6cDbEV2J8buVkIfhB">
        <text
            xml:space="preserve"
            font-family="Noto Sans JP"
            font-size="444"
            font-style="normal"
            font-weight="700"
            line-height="1"
            style="stroke: none; stroke-width: 1; stroke-dasharray: none; stroke-linecap: butt; stroke-dashoffset: 0; stroke-linejoin: miter; stroke-miterlimit: 4; fill: rgb(248, 248, 255); fill-rule: nonzero; opacity: 1; white-space: pre;"
        >
            <tspan x="-222" y="139.48">秘</tspan>
        </text>
    </g>
</svg>
